<svg width="18" height="31" viewBox="0 0 18 31" fill="none" xmlns="http://www.w3.org/2000/svg">
<path fill-rule="evenodd" clip-rule="evenodd" d="M15.4012 17.8616L17.7793 15.4703L15.4012 13.079L13.0234 15.4703L15.4012 17.8616Z" fill="#743922"/>
<path fill-rule="evenodd" clip-rule="evenodd" d="M11.0599 22.2274L13.4377 19.8362L11.0599 17.4449L8.68213 19.8362L11.0599 22.2274Z" fill="#743922"/>
<path fill-rule="evenodd" clip-rule="evenodd" d="M6.71933 26.5934L9.09713 24.2021L6.71933 21.8108L4.34131 24.2021L6.71933 26.5934Z" fill="#743922"/>
<path fill-rule="evenodd" clip-rule="evenodd" d="M2.3778 30.9593L4.7556 28.568L2.3778 26.1767L0 28.568L2.3778 30.9593Z" fill="#743922"/>
<path fill-rule="evenodd" clip-rule="evenodd" d="M11.0599 13.5019L13.4377 11.1106L11.0599 8.71934L8.68213 11.1106L11.0599 13.5019Z" fill="#743922"/>
<path fill-rule="evenodd" clip-rule="evenodd" d="M6.71933 9.14227L9.09713 6.75097L6.71933 4.35967L4.34131 6.75097L6.71933 9.14227Z" fill="#743922"/>
<path fill-rule="evenodd" clip-rule="evenodd" d="M2.3778 4.7826L4.7556 2.3913L2.3778 0L0 2.3913L2.3778 4.7826Z" fill="#743922"/>
</svg>
