<svg width="33" height="34" viewBox="0 0 33 34" fill="none" xmlns="http://www.w3.org/2000/svg">
<path d="M24.1154 0H8.88461C6.52904 0.00259614 4.27067 0.96785 2.60503 2.68397C0.939384 4.40008 0.00251978 6.72689 0 9.15385V24.8462C0.00251978 27.2731 0.939384 29.5999 2.60503 31.316C4.27067 33.0322 6.52904 33.9974 8.88461 34H24.1154C26.471 33.9974 28.7293 33.0322 30.395 31.316C32.0606 29.5999 32.9975 27.2731 33 24.8462V9.15385C32.9975 6.72689 32.0606 4.40008 30.395 2.68397C28.7293 0.96785 26.471 0.00259614 24.1154 0ZM16.5 24.8462C14.9938 24.8462 13.5215 24.386 12.2691 23.5238C11.0168 22.6617 10.0407 21.4363 9.4643 20.0026C8.88791 18.5689 8.7371 16.9913 9.03094 15.4693C9.32478 13.9473 10.0501 12.5492 11.1151 11.4519C12.1801 10.3546 13.5371 9.60735 15.0143 9.30461C16.4916 9.00186 18.0228 9.15724 19.4143 9.7511C20.8058 10.345 21.9952 11.3506 22.832 12.6409C23.6687 13.9312 24.1154 15.4482 24.1154 17C24.1133 19.0803 23.3103 21.0747 21.8826 22.5457C20.4549 24.0167 18.5191 24.844 16.5 24.8462ZM26.0192 9.15385C25.6427 9.15385 25.2746 9.0388 24.9615 8.82327C24.6484 8.60773 24.4044 8.30138 24.2603 7.94296C24.1162 7.58453 24.0785 7.19013 24.152 6.80963C24.2254 6.42913 24.4067 6.07962 24.673 5.80529C24.9393 5.53096 25.2785 5.34415 25.6478 5.26846C26.0171 5.19277 26.3999 5.23162 26.7478 5.38008C27.0957 5.52855 27.393 5.77996 27.6022 6.10254C27.8114 6.42511 27.9231 6.80435 27.9231 7.19231C27.9231 7.71254 27.7225 8.21146 27.3655 8.57932C27.0084 8.94718 26.5242 9.15385 26.0192 9.15385ZM21.5769 17C21.5769 18.0345 21.2792 19.0459 20.7213 19.9061C20.1634 20.7663 19.3705 21.4367 18.4429 21.8326C17.5152 22.2285 16.4944 22.3321 15.5095 22.1303C14.5247 21.9284 13.6201 21.4302 12.9101 20.6987C12.2001 19.9672 11.7165 19.0351 11.5206 18.0205C11.3247 17.0058 11.4253 15.9541 11.8095 14.9983C12.1938 14.0425 12.8445 13.2255 13.6794 12.6508C14.5143 12.076 15.4959 11.7692 16.5 11.7692C17.8465 11.7692 19.1378 12.3203 20.0899 13.3013C21.042 14.2822 21.5769 15.6127 21.5769 17Z" fill="#5C728F"/>
</svg>
