<svg width="776" height="812" viewBox="0 0 776 812" fill="none" xmlns="http://www.w3.org/2000/svg">
<path fill-rule="evenodd" clip-rule="evenodd" d="M67.9274 33.9637L33.9637 0L0 33.9637L33.9637 67.9274L67.9274 33.9637Z" fill="#743922"/>
<path fill-rule="evenodd" clip-rule="evenodd" d="M129.936 95.9591L95.9724 62.0081L62.0087 95.9591L95.9724 129.923L129.936 95.9591Z" fill="#743922"/>
<path fill-rule="evenodd" clip-rule="evenodd" d="M68.0143 157.966L34.0506 124.002L0.0869141 157.966L34.0506 191.93L68.0143 157.966Z" fill="#743922"/>
<path fill-rule="evenodd" clip-rule="evenodd" d="M191.933 157.966L157.982 124.002L124.019 157.966L157.982 191.93L191.933 157.966Z" fill="#743922"/>
<path fill-rule="evenodd" clip-rule="evenodd" d="M130.023 219.975L96.0593 186.011L62.0956 219.975L96.0593 253.939L130.023 219.975Z" fill="#743922"/>
<path fill-rule="evenodd" clip-rule="evenodd" d="M253.935 219.975L219.971 186.011L186.02 219.975L219.971 253.939L253.935 219.975Z" fill="#743922"/>
<path fill-rule="evenodd" clip-rule="evenodd" d="M68.1062 281.981L34.1425 248.018L0.178833 281.981L34.1425 315.945L68.1062 281.981Z" fill="#743922"/>
<path fill-rule="evenodd" clip-rule="evenodd" d="M192.031 281.981L158.067 248.018L124.104 281.981L158.067 315.945L192.031 281.981Z" fill="#743922"/>
<path fill-rule="evenodd" clip-rule="evenodd" d="M315.945 281.981L281.981 248.018L248.018 281.981L281.981 315.945L315.945 281.981Z" fill="#743922"/>
<path fill-rule="evenodd" clip-rule="evenodd" d="M130.108 343.99L96.1447 310.026L62.181 343.99L96.1447 377.954L130.108 343.99Z" fill="#743922"/>
<path fill-rule="evenodd" clip-rule="evenodd" d="M254.029 343.99L220.065 310.026L186.114 343.99L220.065 377.954L254.029 343.99Z" fill="#743922"/>
<path fill-rule="evenodd" clip-rule="evenodd" d="M377.955 343.99L343.991 310.026L310.027 343.99L343.991 377.954L377.955 343.99Z" fill="#743922"/>
<path fill-rule="evenodd" clip-rule="evenodd" d="M68.1922 406L34.2285 372.036L0.264771 406L34.2285 439.963L68.1922 406Z" fill="#743922"/>
<path fill-rule="evenodd" clip-rule="evenodd" d="M192.119 406L158.155 372.036L124.192 406L158.155 439.963L192.119 406Z" fill="#743922"/>
<path fill-rule="evenodd" clip-rule="evenodd" d="M316.038 406L282.074 372.036L248.11 406L282.074 439.963L316.038 406Z" fill="#743922"/>
<path fill-rule="evenodd" clip-rule="evenodd" d="M130.202 468.006L96.2385 434.042L62.2748 468.006L96.2385 501.97L130.202 468.006Z" fill="#743922"/>
<path fill-rule="evenodd" clip-rule="evenodd" d="M254.115 468.006L220.164 434.042L186.2 468.006L220.164 501.97L254.115 468.006Z" fill="#743922"/>
<path fill-rule="evenodd" clip-rule="evenodd" d="M378.041 468.006L344.077 434.042L310.113 468.006L344.077 501.97L378.041 468.006Z" fill="#743922"/>
<path fill-rule="evenodd" clip-rule="evenodd" d="M192.211 530.002L158.247 496.051L124.283 530.002L158.247 563.965L192.211 530.002Z" fill="#743922"/>
<path fill-rule="evenodd" clip-rule="evenodd" d="M316.124 530.002L282.16 496.051L248.196 530.002L282.16 563.965L316.124 530.002Z" fill="#743922"/>
<path fill-rule="evenodd" clip-rule="evenodd" d="M254.201 592.012L220.25 558.048L186.287 592.012L220.25 625.975L254.201 592.012Z" fill="#743922"/>
<path fill-rule="evenodd" clip-rule="evenodd" d="M378.133 592.012L344.17 558.048L310.206 592.012L344.17 625.975L378.133 592.012Z" fill="#743922"/>
<path fill-rule="evenodd" clip-rule="evenodd" d="M316.21 654.018L282.246 620.054L248.295 654.018L282.246 687.981L316.21 654.018Z" fill="#743922"/>
<path fill-rule="evenodd" clip-rule="evenodd" d="M378.22 716.027L344.256 682.063L310.292 716.027L344.256 749.99L378.22 716.027Z" fill="#743922"/>
<path fill-rule="evenodd" clip-rule="evenodd" d="M625.707 219.975L591.744 186.011L557.792 219.975L591.744 253.939L625.707 219.975Z" fill="#743922"/>
<path fill-rule="evenodd" clip-rule="evenodd" d="M687.717 281.984L653.753 248.021L619.79 281.984L653.753 315.948L687.717 281.984Z" fill="#743922"/>
<path fill-rule="evenodd" clip-rule="evenodd" d="M625.794 343.99L591.843 310.026L557.879 343.99L591.843 377.954L625.794 343.99Z" fill="#743922"/>
<path fill-rule="evenodd" clip-rule="evenodd" d="M749.725 343.99L715.762 310.026L681.798 343.99L715.762 377.954L749.725 343.99Z" fill="#743922"/>
<path fill-rule="evenodd" clip-rule="evenodd" d="M687.803 406L653.839 372.036L619.876 406L653.839 439.963L687.803 406Z" fill="#743922"/>
<path fill-rule="evenodd" clip-rule="evenodd" d="M811.729 406L777.765 372.036L743.802 406L777.765 439.963L811.729 406Z" fill="#743922"/>
<path fill-rule="evenodd" clip-rule="evenodd" d="M625.886 468.009L591.934 434.045L557.971 468.009L591.934 501.972L625.886 468.009Z" fill="#743922"/>
<path fill-rule="evenodd" clip-rule="evenodd" d="M749.812 468.009L715.848 434.045L681.885 468.009L715.848 501.972L749.812 468.009Z" fill="#743922"/>
<path fill-rule="evenodd" clip-rule="evenodd" d="M687.894 530.002L653.93 496.051L619.979 530.002L653.93 563.965L687.894 530.002Z" fill="#743922"/>
<path fill-rule="evenodd" clip-rule="evenodd" d="M811.821 530.002L777.857 496.051L743.893 530.002L777.857 563.965L811.821 530.002Z" fill="#743922"/>
<path fill-rule="evenodd" clip-rule="evenodd" d="M625.973 592.012L592.021 558.048L558.058 592.012L592.021 625.975L625.973 592.012Z" fill="#743922"/>
<path fill-rule="evenodd" clip-rule="evenodd" d="M749.898 592.012L715.934 558.048L681.971 592.012L715.934 625.975L749.898 592.012Z" fill="#743922"/>
<path fill-rule="evenodd" clip-rule="evenodd" d="M687.982 654.018L654.018 620.054L620.067 654.018L654.018 687.981L687.982 654.018Z" fill="#743922"/>
<path fill-rule="evenodd" clip-rule="evenodd" d="M811.908 654.018L777.944 620.054L743.98 654.018L777.944 687.981L811.908 654.018Z" fill="#743922"/>
<path fill-rule="evenodd" clip-rule="evenodd" d="M749.991 716.027L716.027 682.063L682.064 716.027L716.027 749.99L749.991 716.027Z" fill="#743922"/>
<path fill-rule="evenodd" clip-rule="evenodd" d="M811.994 778.036L778.03 744.072L744.066 778.036L778.03 812L811.994 778.036Z" fill="#743922"/>
<path fill-rule="evenodd" clip-rule="evenodd" d="M563.803 281.981L529.839 248.018L495.875 281.981L529.839 315.945L563.803 281.981Z" fill="#9DC3E6"/>
<path fill-rule="evenodd" clip-rule="evenodd" d="M501.88 343.99L467.916 310.026L433.953 343.99L467.916 377.954L501.88 343.99Z" fill="#9DC3E6"/>
<path fill-rule="evenodd" clip-rule="evenodd" d="M439.963 405.996L406 372.033L372.036 405.996L406 439.96L439.963 405.996Z" fill="#9DC3E6"/>
<path fill-rule="evenodd" clip-rule="evenodd" d="M563.89 405.996L529.926 372.033L495.962 405.996L529.926 439.96L563.89 405.996Z" fill="#9DC3E6"/>
<path fill-rule="evenodd" clip-rule="evenodd" d="M501.972 468.006L468.008 434.042L434.044 468.006L468.008 501.97L501.972 468.006Z" fill="#9DC3E6"/>
<path fill-rule="evenodd" clip-rule="evenodd" d="M440.049 530.002L406.085 496.051L372.122 530.002L406.085 563.965L440.049 530.002Z" fill="#9DC3E6"/>
<path fill-rule="evenodd" clip-rule="evenodd" d="M563.981 530.002L530.018 496.051L496.054 530.002L530.018 563.965L563.981 530.002Z" fill="#9DC3E6"/>
<path fill-rule="evenodd" clip-rule="evenodd" d="M502.059 592.008L468.095 558.044L434.131 592.008L468.095 625.972L502.059 592.008Z" fill="#9DC3E6"/>
<path fill-rule="evenodd" clip-rule="evenodd" d="M440.142 654.018L406.178 620.054L372.215 654.018L406.178 687.981L440.142 654.018Z" fill="#9DC3E6"/>
<path fill-rule="evenodd" clip-rule="evenodd" d="M564.067 654.018L530.104 620.054L496.14 654.018L530.104 687.981L564.067 654.018Z" fill="#9DC3E6"/>
<path fill-rule="evenodd" clip-rule="evenodd" d="M502.145 716.024L468.181 682.06L434.217 716.024L468.181 749.987L502.145 716.024Z" fill="#9DC3E6"/>
<path fill-rule="evenodd" clip-rule="evenodd" d="M440.228 778.032L406.264 744.069L372.301 778.032L406.264 811.996L440.228 778.032Z" fill="#9DC3E6"/>
</svg>
