<?xml version="1.0" encoding="UTF-8" standalone="no"?>
<!DOCTYPE svg PUBLIC "-//W3C//DTD SVG 1.1//EN" "http://www.w3.org/Graphics/SVG/1.1/DTD/svg11.dtd">
<svg width="100%" height="100%" viewBox="0 0 164 105" version="1.1" xmlns="http://www.w3.org/2000/svg" xmlns:xlink="http://www.w3.org/1999/xlink" xml:space="preserve" xmlns:serif="http://www.serif.com/" style="fill-rule:evenodd;clip-rule:evenodd;stroke-linejoin:round;stroke-miterlimit:2;">
    <g transform="matrix(1,0,0,1,-953.689,-605.887)">
        <path d="M1013.98,658.535C1013.98,676.157 1022.84,691.741 1036.33,701.09C1049.74,691.599 1058.51,675.975 1058.51,658.295C1058.51,640.764 1049.89,625.254 1036.67,615.74C1022.98,625.061 1013.98,640.765 1013.98,658.535Z" style="fill-rule:nonzero;"/>
    </g>
    <g transform="matrix(1,0,0,1,-953.689,-605.887)">
        <path d="M1006.76,658.535C1006.76,639.441 1015.89,622.446 1030.01,611.664C1022.84,607.979 1014.71,605.887 1006.1,605.887C977.153,605.887 953.689,629.351 953.689,658.295C953.689,687.239 977.153,710.703 1006.1,710.703C1014.57,710.703 1022.56,708.682 1029.64,705.115C1015.73,694.32 1006.76,677.461 1006.76,658.535Z" style="fill-rule:nonzero;"/>
    </g>
    <g transform="matrix(1,0,0,1,-953.689,-605.887)">
        <path d="M1065.72,614.29C1041.33,614.29 1021.48,634.139 1021.48,658.535C1021.48,682.933 1041.33,702.78 1065.72,702.78C1090.12,702.78 1109.97,682.933 1109.97,658.535C1109.97,634.139 1090.12,614.29 1065.72,614.29ZM1065.72,709.996C1037.35,709.996 1014.26,686.911 1014.26,658.535C1014.26,630.159 1037.35,607.074 1065.72,607.074C1094.1,607.074 1117.18,630.159 1117.18,658.535C1117.18,686.911 1094.1,709.996 1065.72,709.996Z" style="fill-rule:nonzero;"/>
    </g>
</svg>
