<?xml version="1.0" encoding="UTF-8" standalone="no"?>
<!DOCTYPE svg PUBLIC "-//W3C//DTD SVG 1.1//EN" "http://www.w3.org/Graphics/SVG/1.1/DTD/svg11.dtd">
<svg width="100%" height="100%" viewBox="0 0 127 121" version="1.1" xmlns="http://www.w3.org/2000/svg" xmlns:xlink="http://www.w3.org/1999/xlink" xml:space="preserve" xmlns:serif="http://www.serif.com/" style="fill-rule:evenodd;clip-rule:evenodd;stroke-linejoin:round;stroke-miterlimit:2;">
    <g transform="matrix(1,0,0,1,-751.285,-77.8807)">
        <path d="M818.61,144.116C829.982,149.419 841.719,152.051 851.639,151.534C851.699,151.53 851.757,151.524 851.816,151.521L852.528,81.011C852.553,78.519 849.771,77.021 847.704,78.415L788.393,118.429C793.197,127.584 804.294,137.439 818.61,144.116Z" style="fill-rule:nonzero;"/>
    </g>
    <g transform="matrix(1,0,0,1,-751.285,-77.8807)">
        <path d="M849.161,158.304C838.815,158.304 827.082,155.466 815.775,150.194C800.178,142.92 788.447,132.546 782.809,122.196L752.652,142.542C750.296,144.131 751.149,147.789 753.966,148.172L804.609,155.059C807.589,155.464 810.322,156.935 812.302,159.199L845.948,197.671C847.818,199.811 851.342,198.507 851.371,195.666L851.749,158.237C850.896,158.278 850.035,158.304 849.161,158.304Z" style="fill-rule:nonzero;"/>
    </g>
    <g transform="matrix(1,0,0,1,-751.285,-77.8807)">
        <path d="M849.161,152.964C838.814,152.964 827.081,150.126 815.775,144.854C789.174,132.448 773.793,111.026 780.762,96.084C787.73,81.143 814.027,79.156 840.629,91.562C849.332,95.62 857.22,100.883 863.438,106.782C864.783,108.057 864.839,110.179 863.564,111.523C862.289,112.866 860.167,112.922 858.824,111.648C853.122,106.241 845.851,101.396 837.794,97.64C815.374,87.184 792.039,87.769 786.84,98.919C781.641,110.067 796.189,128.32 818.61,138.776C829.982,144.079 841.712,146.716 851.639,146.193C860.808,145.714 867.174,142.625 869.564,137.497C872.059,132.15 869.646,126.044 867.183,121.862C866.242,120.267 866.774,118.211 868.369,117.271C869.965,116.331 872.021,116.862 872.961,118.458C877.598,126.33 878.551,134.098 875.643,140.332C872.153,147.815 863.753,152.275 851.989,152.891C851.061,152.94 850.116,152.964 849.161,152.964Z" style="fill-rule:nonzero;"/>
    </g>
</svg>
